<?xml version="1.0" encoding="utf-8" standalone="no"?>
<!DOCTYPE svg PUBLIC "-//W3C//DTD SVG 1.1//EN"
  "http://www.w3.org/Graphics/SVG/1.1/DTD/svg11.dtd">
<svg xmlns:xlink="http://www.w3.org/1999/xlink" width="864pt" height="864pt" viewBox="0 0 864 864" xmlns="http://www.w3.org/2000/svg" version="1.1">
 <metadata>
  <rdf:RDF xmlns:dc="http://purl.org/dc/elements/1.1/" xmlns:cc="http://creativecommons.org/ns#" xmlns:rdf="http://www.w3.org/1999/02/22-rdf-syntax-ns#">
   <cc:Work>
    <dc:type rdf:resource="http://purl.org/dc/dcmitype/StillImage"/>
    <dc:date>2026-03-26T17:09:52.412557</dc:date>
    <dc:format>image/svg+xml</dc:format>
    <dc:creator>
     <cc:Agent>
      <dc:title>Matplotlib v3.10.8, https://matplotlib.org/</dc:title>
     </cc:Agent>
    </dc:creator>
   </cc:Work>
  </rdf:RDF>
 </metadata>
 <defs>
  <style type="text/css">*{stroke-linejoin: round; stroke-linecap: butt}</style>
 </defs>
 <g id="figure_1">
  <g id="patch_1">
   <path d="M 0 864 
L 864 864 
L 864 0 
L 0 0 
z
" style="fill: #ffffff"/>
  </g>
  <g id="axes_1">
   <g id="patch_2">
    <path d="M 73.34375 810.49 
L 823.946181 810.49 
L 823.946181 25.155 
L 73.34375 25.155 
z
" style="fill: #ffffff"/>
   </g>
   <g id="FillBetweenPolyCollection_1">
    <defs>
     <path id="m549d2b1aeb" d="M -154.662224 -154.707149 
L -154.662224 18.789597 
L -92.782322 -129.684198 
L -49.858816 -221.805622 
L -16.961365 -286.38298 
L 9.718104 -334.914244 
L 32.160599 -373.074749 
L 51.529248 -404.052009 
L 68.565529 -429.800552 
L 83.771276 -451.597936 
L 97.501979 -470.320912 
L 110.018678 -486.594743 
L 121.518714 -500.879446 
L 132.154909 -513.522287 
L 142.048022 -524.791158 
L 151.295135 -534.896575 
L 159.975467 -544.006628 
L 168.154503 -552.257411 
L 175.886995 -559.760473 
L 183.21919 -566.608245 
L 190.190499 -572.878061 
L 196.834789 -578.635193 
L 203.181369 -583.93517 
L 209.255778 -588.825568 
L 215.080404 -593.34742 
L 220.67498 -597.536326 
L 226.05699 -601.423343 
L 231.241997 -605.035706 
L 236.243916 -608.397404 
L 241.075237 -611.529666 
L 245.747214 -614.451351 
L 250.270023 -617.179278 
L 254.652896 -619.728498 
L 258.904232 -622.112526 
L 263.031698 -624.343537 
L 267.042307 -626.432527 
L 270.942496 -628.389459 
L 274.738181 -630.223381 
L 278.434816 -631.94253 
L 282.037442 -633.554426 
L 285.550719 -635.065943 
L 288.978974 -636.483386 
L 292.326224 -637.812543 
L 295.59621 -639.05874 
L 298.792417 -640.226886 
L 301.918102 -641.321517 
L 304.97631 -642.346825 
L 307.969892 -643.306696 
L 310.901524 -644.204735 
L 313.773718 -645.044292 
L 316.588835 -645.828484 
L 319.349102 -646.560213 
L 322.056613 -647.242191 
L 324.713348 -647.876947 
L 327.321176 -648.466847 
L 329.881866 -649.014109 
L 332.397092 -649.520808 
L 334.868439 -649.988894 
L 337.297412 -650.420196 
L 339.685441 -650.816436 
L 342.033882 -651.179232 
L 344.344026 -651.510111 
L 346.617104 -651.810511 
L 348.854285 -652.081788 
L 351.056685 -652.325224 
L 353.22537 -652.54203 
L 355.361357 -652.733353 
L 357.465616 -652.900276 
L 359.539076 -653.043828 
L 361.582626 -653.164982 
L 363.597117 -653.264662 
L 365.583364 -653.343746 
L 367.542147 -653.403067 
L 369.474216 -653.443415 
L 371.380289 -653.465546 
L 373.261057 -653.470176 
L 375.117183 -653.457987 
L 376.949305 -653.429629 
L 378.758034 -653.385723 
L 380.543962 -653.32686 
L 382.307656 -653.253605 
L 384.049662 -653.166495 
L 385.770508 -653.066047 
L 387.470701 -652.952751 
L 389.150732 -652.827078 
L 390.811073 -652.689478 
L 392.452179 -652.540383 
L 394.074492 -652.380203 
L 395.678438 -652.209334 
L 397.264427 -652.028156 
L 398.832857 -651.837029 
L 400.384113 -651.636303 
L 401.918566 -651.426312 
L 403.436577 -651.207376 
L 404.938495 -650.979802 
L 406.424656 -650.743887 
L 407.895389 -650.499914 
L 409.35101 -650.248156 
L 410.791827 -649.988876 
L 412.218137 -649.722326 
L 413.630231 -649.448749 
L 415.028388 -649.168379 
L 416.412881 -648.881442 
L 417.783975 -648.588153 
L 419.141925 -648.288722 
L 420.486983 -647.98335 
L 421.819391 -647.67223 
L 423.139383 -647.355551 
L 424.44719 -647.033492 
L 425.743034 -646.706227 
L 427.027133 -646.373925 
L 428.299696 -646.036747 
L 429.560931 -645.694849 
L 430.811036 -645.348384 
L 432.050206 -644.997497 
L 433.278631 -644.642328 
L 434.496495 -644.283015 
L 435.70398 -643.919689 
L 436.901259 -643.552478 
L 438.088505 -643.181503 
L 439.265884 -642.806886 
L 440.433558 -642.42874 
L 441.591686 -642.047178 
L 442.740424 -641.662308 
L 443.879922 -641.274234 
L 445.010327 -640.883056 
L 446.131784 -640.488874 
L 447.244433 -640.091782 
L 448.348411 -639.691873 
L 449.443853 -639.289234 
L 450.53089 -638.883953 
L 451.609649 -638.476113 
L 452.680255 -638.065796 
L 453.742832 -637.65308 
L 454.797498 -637.238042 
L 455.84437 -636.820755 
L 456.883563 -636.401292 
L 457.915189 -635.979721 
L 458.939356 -635.556112 
L 459.956173 -635.130529 
L 460.965744 -634.703036 
L 461.968171 -634.273695 
L 462.963554 -633.842566 
L 463.951993 -633.409708 
L 464.933583 -632.975177 
L 465.908418 -632.539028 
L 466.876592 -632.101314 
L 467.838193 -631.662089 
L 468.793312 -631.221401 
L 469.742034 -630.779301 
L 470.684445 -630.335836 
L 471.620628 -629.891053 
L 472.550666 -629.444996 
L 473.474637 -628.997709 
L 474.392622 -628.549235 
L 475.304696 -628.099616 
L 476.210936 -627.648892 
L 477.111415 -627.197103 
L 478.006207 -626.744285 
L 478.895383 -626.290478 
L 479.779013 -625.835716 
L 480.657165 -625.380035 
L 481.529908 -624.923469 
L 482.397306 -624.466052 
L 483.259427 -624.007817 
L 484.116332 -623.548794 
L 484.968086 -623.089014 
L 485.814749 -622.628509 
L 486.656382 -622.167306 
L 487.493045 -621.705434 
L 488.324796 -621.242921 
L 489.151691 -620.779794 
L 489.973789 -620.31608 
L 490.791143 -619.851803 
L 491.603808 -619.386989 
L 492.411838 -618.921663 
L 493.215286 -618.455847 
L 494.014203 -617.989565 
L 494.808639 -617.52284 
L 495.598646 -617.055693 
L 496.384271 -616.588146 
L 497.165564 -616.12022 
L 497.942571 -615.651935 
L 498.715341 -615.183311 
L 499.483917 -614.714367 
L 500.248347 -614.245122 
L 501.008673 -613.775595 
L 501.764941 -613.305803 
L 502.517194 -612.835763 
L 503.265472 -612.365494 
L 504.00982 -611.895012 
L 504.750276 -611.424332 
L 505.486883 -610.953471 
L 506.21968 -610.482443 
L 506.948705 -610.011265 
L 507.673998 -609.539951 
L 508.395597 -609.068515 
L 509.113539 -608.596971 
L 509.827861 -608.125333 
L 510.538599 -607.653614 
L 511.245789 -607.181827 
L 511.245789 -780.678574 
L 511.245789 -780.678574 
L 510.538599 -781.150361 
L 509.827861 -781.62208 
L 509.113539 -782.093718 
L 508.395597 -782.565262 
L 507.673998 -783.036698 
L 506.948705 -783.508012 
L 506.21968 -783.97919 
L 505.486883 -784.450217 
L 504.750276 -784.921078 
L 504.00982 -785.391758 
L 503.265472 -785.862241 
L 502.517194 -786.33251 
L 501.764941 -786.802549 
L 501.008673 -787.272341 
L 500.248347 -787.741869 
L 499.483917 -788.211113 
L 498.715341 -788.680057 
L 497.942571 -789.148682 
L 497.165564 -789.616967 
L 496.384271 -790.084893 
L 495.598646 -790.55244 
L 494.808639 -791.019587 
L 494.014203 -791.486312 
L 493.215286 -791.952594 
L 492.411838 -792.418409 
L 491.603808 -792.883736 
L 490.791143 -793.34855 
L 489.973789 -793.812827 
L 489.151691 -794.276541 
L 488.324796 -794.739668 
L 487.493045 -795.202181 
L 486.656382 -795.664052 
L 485.814749 -796.125255 
L 484.968086 -796.585761 
L 484.116332 -797.04554 
L 483.259427 -797.504563 
L 482.397306 -797.962799 
L 481.529908 -798.420216 
L 480.657165 -798.876781 
L 479.779013 -799.332462 
L 478.895383 -799.787224 
L 478.006207 -800.241032 
L 477.111415 -800.693849 
L 476.210936 -801.145639 
L 475.304696 -801.596363 
L 474.392622 -802.045982 
L 473.474637 -802.494455 
L 472.550666 -802.941742 
L 471.620628 -803.387799 
L 470.684445 -803.832583 
L 469.742034 -804.276048 
L 468.793312 -804.718148 
L 467.838193 -805.158835 
L 466.876592 -805.598061 
L 465.908418 -806.035774 
L 464.933583 -806.471923 
L 463.951993 -806.906454 
L 462.963554 -807.339313 
L 461.968171 -807.770441 
L 460.965744 -808.199782 
L 459.956173 -808.627275 
L 458.939356 -809.052858 
L 457.915189 -809.476468 
L 456.883563 -809.898038 
L 455.84437 -810.317502 
L 454.797498 -810.734788 
L 453.742832 -811.149827 
L 452.680255 -811.562543 
L 451.609649 -811.97286 
L 450.53089 -812.3807 
L 449.443853 -812.785981 
L 448.348411 -813.188619 
L 447.244433 -813.588529 
L 446.131784 -813.985621 
L 445.010327 -814.379803 
L 443.879922 -814.77098 
L 442.740424 -815.159055 
L 441.591686 -815.543925 
L 440.433558 -815.925487 
L 439.265884 -816.303632 
L 438.088505 -816.67825 
L 436.901259 -817.049224 
L 435.70398 -817.416436 
L 434.496495 -817.779762 
L 433.278631 -818.139075 
L 432.050206 -818.494243 
L 430.811036 -818.845131 
L 429.560931 -819.191596 
L 428.299696 -819.533493 
L 427.027133 -819.870671 
L 425.743034 -820.202974 
L 424.44719 -820.530238 
L 423.139383 -820.852297 
L 421.819391 -821.168977 
L 420.486983 -821.480096 
L 419.141925 -821.785468 
L 417.783975 -822.0849 
L 416.412881 -822.378188 
L 415.028388 -822.665126 
L 413.630231 -822.945496 
L 412.218137 -823.219072 
L 410.791827 -823.485622 
L 409.35101 -823.744902 
L 407.895389 -823.99666 
L 406.424656 -824.240633 
L 404.938495 -824.476549 
L 403.436577 -824.704122 
L 401.918566 -824.923059 
L 400.384113 -825.13305 
L 398.832857 -825.333776 
L 397.264427 -825.524902 
L 395.678438 -825.706081 
L 394.074492 -825.87695 
L 392.452179 -826.037129 
L 390.811073 -826.186225 
L 389.150732 -826.323825 
L 387.470701 -826.449497 
L 385.770508 -826.562793 
L 384.049662 -826.663242 
L 382.307656 -826.750351 
L 380.543962 -826.823607 
L 378.758034 -826.88247 
L 376.949305 -826.926376 
L 375.117183 -826.954733 
L 373.261057 -826.966922 
L 371.380289 -826.962293 
L 369.474216 -826.940162 
L 367.542147 -826.899813 
L 365.583364 -826.840493 
L 363.597117 -826.761409 
L 361.582626 -826.661729 
L 359.539076 -826.540575 
L 357.465616 -826.397023 
L 355.361357 -826.230099 
L 353.22537 -826.038777 
L 351.056685 -825.82197 
L 348.854285 -825.578534 
L 346.617104 -825.307257 
L 344.344026 -825.006858 
L 342.033882 -824.675979 
L 339.685441 -824.313182 
L 337.297412 -823.916943 
L 334.868439 -823.48564 
L 332.397092 -823.017555 
L 329.881866 -822.510856 
L 327.321176 -821.963594 
L 324.713348 -821.373693 
L 322.056613 -820.738937 
L 319.349102 -820.05696 
L 316.588835 -819.32523 
L 313.773718 -818.541039 
L 310.901524 -817.701482 
L 307.969892 -816.803443 
L 304.97631 -815.843571 
L 301.918102 -814.818263 
L 298.792417 -813.723633 
L 295.59621 -812.555486 
L 292.326224 -811.30929 
L 288.978974 -809.980133 
L 285.550719 -808.56269 
L 282.037442 -807.051172 
L 278.434816 -805.439277 
L 274.738181 -803.720127 
L 270.942496 -801.886206 
L 267.042307 -799.929274 
L 263.031698 -797.840284 
L 258.904232 -795.609273 
L 254.652896 -793.225244 
L 250.270023 -790.676024 
L 245.747214 -787.948098 
L 241.075237 -785.026413 
L 236.243916 -781.894151 
L 231.241997 -778.532452 
L 226.05699 -774.92009 
L 220.67498 -771.033072 
L 215.080404 -766.844166 
L 209.255778 -762.322314 
L 203.181369 -757.431916 
L 196.834789 -752.13194 
L 190.190499 -746.374807 
L 183.21919 -740.104991 
L 175.886995 -733.25722 
L 168.154503 -725.754157 
L 159.975467 -717.503374 
L 151.295135 -708.393322 
L 142.048022 -698.287905 
L 132.154909 -687.019034 
L 121.518714 -674.376193 
L 110.018678 -660.09149 
L 97.501979 -643.817658 
L 83.771276 -625.094683 
L 68.565529 -603.297299 
L 51.529248 -577.548756 
L 32.160599 -546.571496 
L 9.718104 -508.410991 
L -16.961365 -459.879727 
L -49.858816 -395.302369 
L -92.782322 -303.180945 
L -154.662224 -154.707149 
z
" style="stroke: #bfbfbf; stroke-opacity: 0.05"/>
    </defs>
    <g clip-path="url(#pa46b8edb83)">
     <use xlink:href="#m549d2b1aeb" x="0" y="864" style="fill: #bfbfbf; fill-opacity: 0.05; stroke: #bfbfbf; stroke-opacity: 0.05"/>
    </g>
   </g>
   <g id="FillBetweenPolyCollection_2">
    <defs>
     <path id="m3d8b51e8a1" d="M -154.662224 -65.955983 
L -154.662224 -57.998222 
L -140.449697 -86.419491 
L -127.533905 -111.886508 
L -115.697881 -134.922523 
L -104.774933 -155.925235 
L -94.634219 -175.203716 
L -85.171148 -193.002731 
L -76.300801 -209.519287 
L -67.953282 -224.914205 
L -60.070376 -239.320397 
L -52.603078 -252.848916 
L -45.50975 -265.593464 
L -38.754714 -277.633789 
L -32.307166 -289.038306 
L -26.140328 -299.866124 
L -20.230773 -310.168648 
L -14.55789 -319.990845 
L -9.10345 -329.372269 
L -3.851252 -338.347888 
L 1.213168 -346.948758 
L 6.102773 -355.202578 
L 10.829232 -363.134158 
L 15.40308 -370.765796 
L 19.833865 -378.117607 
L 24.130265 -385.207796 
L 28.300194 -392.052886 
L 32.350885 -398.667923 
L 36.288967 -405.066637 
L 40.120533 -411.261598 
L 43.851194 -417.264336 
L 47.486127 -423.085452 
L 51.030123 -428.734715 
L 54.487621 -434.221149 
L 57.862744 -439.553098 
L 61.159324 -444.7383 
L 64.380935 -449.78394 
L 67.530911 -454.6967 
L 70.612368 -459.482807 
L 73.628224 -464.148069 
L 76.581214 -468.697917 
L 79.473905 -473.137432 
L 82.308711 -477.471373 
L 85.087903 -481.70421 
L 87.813621 -485.840138 
L 90.487885 -489.883107 
L 93.1126 -493.836834 
L 95.68957 -497.704824 
L 98.2205 -501.490386 
L 100.707008 -505.196645 
L 103.150624 -508.826556 
L 105.552805 -512.382919 
L 107.914932 -515.868384 
L 110.238318 -519.285465 
L 112.524215 -522.636549 
L 114.773812 -525.923902 
L 116.988244 -529.149682 
L 119.168595 -532.315938 
L 121.315897 -535.424623 
L 123.431136 -538.4776 
L 125.515258 -541.476642 
L 127.569163 -544.423443 
L 129.593716 -547.319621 
L 131.589743 -550.166722 
L 133.558038 -552.966223 
L 135.49936 -555.719538 
L 137.414439 -558.428022 
L 139.303974 -561.092971 
L 141.168639 -563.715628 
L 143.009079 -566.297184 
L 144.825916 -568.838784 
L 146.619747 -571.341527 
L 148.391149 -573.806465 
L 150.140674 -576.234614 
L 151.868856 -578.626947 
L 153.576211 -580.984403 
L 155.263234 -583.307883 
L 156.930403 -585.598257 
L 158.578181 -587.85636 
L 160.207014 -590.083 
L 161.817331 -592.278954 
L 163.40955 -594.444971 
L 164.984073 -596.581776 
L 166.541288 -598.690066 
L 168.081572 -600.770517 
L 169.60529 -602.823779 
L 171.112793 -604.850483 
L 172.604423 -606.851236 
L 174.080512 -608.826627 
L 175.541379 -610.777227 
L 176.987336 -612.703585 
L 178.418683 -614.606235 
L 179.835713 -616.485694 
L 181.238709 -618.342461 
L 182.627947 -620.177023 
L 184.003694 -621.989849 
L 185.36621 -623.781394 
L 186.715746 -625.5521 
L 188.052547 -627.302396 
L 189.376852 -629.032698 
L 190.688892 -630.743411 
L 191.988892 -632.434925 
L 193.277072 -634.107622 
L 194.553643 -635.761871 
L 195.818814 -637.398033 
L 197.072786 -639.016457 
L 198.315756 -640.617482 
L 199.547916 -642.201439 
L 200.76945 -643.768649 
L 201.980542 -645.319424 
L 203.181369 -646.85407 
L 204.372102 -648.372881 
L 205.552911 -649.876147 
L 206.723958 -651.364148 
L 207.885405 -652.837158 
L 209.037407 -654.295443 
L 210.180118 -655.739262 
L 211.313684 -657.168869 
L 212.438252 -658.584511 
L 213.553964 -659.986427 
L 214.660957 -661.374853 
L 215.759368 -662.750017 
L 216.849327 -664.112142 
L 217.930965 -665.461447 
L 219.004406 -666.798143 
L 220.069776 -668.122439 
L 221.127193 -669.434537 
L 222.176776 -670.734634 
L 223.21864 -672.022924 
L 224.252898 -673.299596 
L 225.27966 -674.564834 
L 226.299034 -675.818818 
L 227.311125 -677.061724 
L 228.316037 -678.293725 
L 229.313871 -679.514988 
L 230.304726 -680.725679 
L 231.288699 -681.925958 
L 232.265884 -683.115983 
L 233.236376 -684.295907 
L 234.200264 -685.465881 
L 235.157638 -686.626054 
L 236.108586 -687.776568 
L 237.053193 -688.917565 
L 237.991544 -690.049184 
L 238.92372 -691.171559 
L 239.849803 -692.284824 
L 240.769871 -693.389108 
L 241.684002 -694.484539 
L 242.592272 -695.57124 
L 243.494757 -696.649334 
L 244.391528 -697.718941 
L 245.282659 -698.780178 
L 246.168219 -699.833159 
L 247.048278 -700.877997 
L 247.922904 -701.914803 
L 248.792163 -702.943686 
L 249.65612 -703.96475 
L 250.514841 -704.9781 
L 251.368389 -705.983838 
L 252.216824 -706.982065 
L 253.060208 -707.972879 
L 253.898601 -708.956376 
L 254.732062 -709.93265 
L 255.560648 -710.901795 
L 256.384416 -711.863902 
L 257.203422 -712.81906 
L 258.01772 -713.767357 
L 258.827364 -714.708879 
L 259.632407 -715.643712 
L 260.432902 -716.571937 
L 261.228898 -717.493637 
L 262.020448 -718.408892 
L 262.807599 -719.317781 
L 263.5904 -720.220381 
L 264.3689 -721.116768 
L 265.143145 -722.007018 
L 265.913182 -722.891202 
L 266.679056 -723.769395 
L 267.440811 -724.641666 
L 268.198493 -725.508085 
L 268.952144 -726.368721 
L 269.701806 -727.223641 
L 270.447523 -728.072912 
L 271.189335 -728.916598 
L 271.927283 -729.754765 
L 272.661406 -730.587474 
L 273.391745 -731.414787 
L 274.118339 -732.236767 
L 274.841224 -733.053472 
L 275.56044 -733.864963 
L 276.276023 -734.671296 
L 276.98801 -735.472529 
L 277.696436 -736.268718 
L 278.401337 -737.059919 
L 279.102748 -737.846186 
L 279.800704 -738.627572 
L 280.495238 -739.404131 
L 281.186383 -740.175914 
L 281.874173 -740.942973 
L 282.55864 -741.705358 
L 283.239816 -742.463118 
L 283.239816 -750.420879 
L 283.239816 -750.420879 
L 282.55864 -749.663119 
L 281.874173 -748.900734 
L 281.186383 -748.133675 
L 280.495238 -747.361891 
L 279.800704 -746.585333 
L 279.102748 -745.803946 
L 278.401337 -745.017679 
L 277.696436 -744.226478 
L 276.98801 -743.430289 
L 276.276023 -742.629056 
L 275.56044 -741.822723 
L 274.841224 -741.011233 
L 274.118339 -740.194527 
L 273.391745 -739.372548 
L 272.661406 -738.545234 
L 271.927283 -737.712525 
L 271.189335 -736.874359 
L 270.447523 -736.030672 
L 269.701806 -735.181401 
L 268.952144 -734.326481 
L 268.198493 -733.465845 
L 267.440811 -732.599426 
L 266.679056 -731.727155 
L 265.913182 -730.848963 
L 265.143145 -729.964778 
L 264.3689 -729.074529 
L 263.5904 -728.178141 
L 262.807599 -727.275541 
L 262.020448 -726.366652 
L 261.228898 -725.451397 
L 260.432902 -724.529697 
L 259.632407 -723.601472 
L 258.827364 -722.66664 
L 258.01772 -721.725117 
L 257.203422 -720.77682 
L 256.384416 -719.821662 
L 255.560648 -718.859555 
L 254.732062 -717.89041 
L 253.898601 -716.914136 
L 253.060208 -715.930639 
L 252.216824 -714.939826 
L 251.368389 -713.941599 
L 250.514841 -712.93586 
L 249.65612 -711.92251 
L 248.792163 -710.901446 
L 247.922904 -709.872564 
L 247.048278 -708.835758 
L 246.168219 -707.790919 
L 245.282659 -706.737938 
L 244.391528 -705.676701 
L 243.494757 -704.607095 
L 242.592272 -703.529 
L 241.684002 -702.442299 
L 240.769871 -701.346869 
L 239.849803 -700.242584 
L 238.92372 -699.12932 
L 237.991544 -698.006944 
L 237.053193 -696.875325 
L 236.108586 -695.734328 
L 235.157638 -694.583814 
L 234.200264 -693.423642 
L 233.236376 -692.253667 
L 232.265884 -691.073743 
L 231.288699 -689.883718 
L 230.304726 -688.683439 
L 229.313871 -687.472749 
L 228.316037 -686.251485 
L 227.311125 -685.019484 
L 226.299034 -683.776578 
L 225.27966 -682.522594 
L 224.252898 -681.257356 
L 223.21864 -679.980684 
L 222.176776 -678.692394 
L 221.127193 -677.392297 
L 220.069776 -676.0802 
L 219.004406 -674.755904 
L 217.930965 -673.419207 
L 216.849327 -672.069903 
L 215.759368 -670.707777 
L 214.660957 -669.332613 
L 213.553964 -667.944187 
L 212.438252 -666.542271 
L 211.313684 -665.12663 
L 210.180118 -663.697022 
L 209.037407 -662.253203 
L 207.885405 -660.794918 
L 206.723958 -659.321909 
L 205.552911 -657.833907 
L 204.372102 -656.330642 
L 203.181369 -654.81183 
L 201.980542 -653.277185 
L 200.76945 -651.726409 
L 199.547916 -650.159199 
L 198.315756 -648.575242 
L 197.072786 -646.974217 
L 195.818814 -645.355794 
L 194.553643 -643.719632 
L 193.277072 -642.065382 
L 191.988892 -640.392685 
L 190.688892 -638.701171 
L 189.376852 -636.990459 
L 188.052547 -635.260156 
L 186.715746 -633.50986 
L 185.36621 -631.739154 
L 184.003694 -629.947609 
L 182.627947 -628.134784 
L 181.238709 -626.300222 
L 179.835713 -624.443454 
L 178.418683 -622.563995 
L 176.987336 -620.661345 
L 175.541379 -618.734987 
L 174.080512 -616.784388 
L 172.604423 -614.808996 
L 171.112793 -612.808243 
L 169.60529 -610.78154 
L 168.081572 -608.728277 
L 166.541288 -606.647827 
L 164.984073 -604.539536 
L 163.40955 -602.402731 
L 161.817331 -600.236714 
L 160.207014 -598.04076 
L 158.578181 -595.81412 
L 156.930403 -593.556017 
L 155.263234 -591.265644 
L 153.576211 -588.942163 
L 151.868856 -586.584708 
L 150.140674 -584.192374 
L 148.391149 -581.764226 
L 146.619747 -579.299287 
L 144.825916 -576.796545 
L 143.009079 -574.254944 
L 141.168639 -571.673388 
L 139.303974 -569.050731 
L 137.414439 -566.385783 
L 135.49936 -563.677299 
L 133.558038 -560.923983 
L 131.589743 -558.124482 
L 129.593716 -555.277381 
L 127.569163 -552.381203 
L 125.515258 -549.434402 
L 123.431136 -546.43536 
L 121.315897 -543.382384 
L 119.168595 -540.273698 
L 116.988244 -537.107442 
L 114.773812 -533.881663 
L 112.524215 -530.594309 
L 110.238318 -527.243225 
L 107.914932 -523.826144 
L 105.552805 -520.340679 
L 103.150624 -516.784317 
L 100.707008 -513.154405 
L 98.2205 -509.448146 
L 95.68957 -505.662584 
L 93.1126 -501.794594 
L 90.487885 -497.840867 
L 87.813621 -493.797899 
L 85.087903 -489.66197 
L 82.308711 -485.429134 
L 79.473905 -481.095192 
L 76.581214 -476.655678 
L 73.628224 -472.10583 
L 70.612368 -467.440567 
L 67.530911 -462.65446 
L 64.380935 -457.7417 
L 61.159324 -452.69606 
L 57.862744 -447.510858 
L 54.487621 -442.178909 
L 51.030123 -436.692476 
L 47.486127 -431.043212 
L 43.851194 -425.222096 
L 40.120533 -419.219359 
L 36.288967 -413.024398 
L 32.350885 -406.625683 
L 28.300194 -400.010647 
L 24.130265 -393.165556 
L 19.833865 -386.075367 
L 15.40308 -378.723556 
L 10.829232 -371.091918 
L 6.102773 -363.160339 
L 1.213168 -354.906518 
L -3.851252 -346.305649 
L -9.10345 -337.33003 
L -14.55789 -327.948605 
L -20.230773 -318.126408 
L -26.140328 -307.823885 
L -32.307166 -296.996066 
L -38.754714 -285.591549 
L -45.50975 -273.551224 
L -52.603078 -260.806677 
L -60.070376 -247.278157 
L -67.953282 -232.871966 
L -76.300801 -217.477047 
L -85.171148 -200.960491 
L -94.634219 -183.161477 
L -104.774933 -163.882996 
L -115.697881 -142.880283 
L -127.533905 -119.844268 
L -140.449697 -94.377251 
L -154.662224 -65.955983 
z
" style="stroke: #caacc5; stroke-opacity: 0.05"/>
    </defs>
    <g clip-path="url(#pa46b8edb83)">
     <use xlink:href="#m3d8b51e8a1" x="0" y="864" style="fill: #caacc5; fill-opacity: 0.05; stroke: #caacc5; stroke-opacity: 0.05"/>
    </g>
   </g>
   <g id="FillBetweenPolyCollection_3">
    <path d="M -154.662224 739.957729 
L -154.662224 942.227987 
L 111.004389 944.97205 
L 197.902644 907.656355 
L 251.368389 875.336768 
L 290.093258 847.475037 
L 320.47316 822.9988 
L 345.474697 801.12875 
L 366.718805 781.320117 
L 385.188708 763.183337 
L 401.525978 746.431455 
L 416.172519 730.847188 
L 429.445688 716.261999 
L 441.581104 702.542436 
L 452.758514 689.580925 
L 463.118169 677.289407 
L 472.771611 665.594827 
L 481.809009 654.435861 
L 490.304298 643.760493 
L 498.318848 633.524191 
L 505.904168 623.688518 
L 513.103906 614.220047 
L 519.955372 605.089515 
L 526.490713 596.271144 
L 532.737817 587.742101 
L 538.72104 579.482059 
L 544.461773 571.472833 
L 549.978909 563.698091 
L 555.289215 556.1431 
L 560.40764 548.79452 
L 565.347567 541.640236 
L 570.121029 534.669204 
L 574.73888 527.871332 
L 579.210946 521.237365 
L 583.54615 514.758799 
L 587.752622 508.427796 
L 591.837786 502.23712 
L 595.808445 496.18007 
L 599.670841 490.250432 
L 603.430723 484.442432 
L 607.093392 478.75069 
L 610.663749 473.170191 
L 614.146332 467.696246 
L 617.545353 462.324469 
L 620.86473 457.050746 
L 624.108109 451.871217 
L 627.278892 446.782254 
L 630.380258 441.780438 
L 633.415181 436.862552 
L 636.38645 432.025555 
L 639.296679 427.266578 
L 642.148325 422.582903 
L 644.943701 417.971961 
L 647.684985 413.431312 
L 650.374231 408.958645 
L 653.013376 404.551762 
L 655.604255 400.208574 
L 658.1486 395.927096 
L 660.648055 391.705434 
L 663.104174 387.541784 
L 665.518437 383.434425 
L 667.892244 379.381714 
L 670.226931 375.382083 
L 672.523765 371.43403 
L 674.783954 367.536119 
L 677.008649 363.686976 
L 679.198948 359.885284 
L 681.355899 356.129779 
L 683.480501 352.419251 
L 685.57371 348.752537 
L 687.636441 345.12852 
L 689.669568 341.546126 
L 691.67393 338.004325 
L 693.650329 334.502122 
L 695.599534 331.038563 
L 697.522283 327.612727 
L 699.419286 324.223728 
L 701.291222 320.87071 
L 703.138746 317.552849 
L 704.962485 314.269349 
L 706.763045 311.019443 
L 708.541007 307.802389 
L 710.296932 304.61747 
L 712.031358 301.463993 
L 713.744807 298.341288 
L 715.43778 295.248708 
L 717.11076 292.185626 
L 718.764213 289.151434 
L 720.398592 286.145545 
L 722.014329 283.167389 
L 723.611847 280.216413 
L 725.191551 277.292084 
L 726.753834 274.39388 
L 728.299076 271.521301 
L 729.827646 268.673855 
L 731.339898 265.85107 
L 732.836178 263.052484 
L 734.316819 260.27765 
L 735.782146 257.526133 
L 737.232471 254.797511 
L 738.668099 252.091372 
L 740.089324 249.407318 
L 741.496433 246.744959 
L 742.889703 244.103917 
L 744.269405 241.483825 
L 745.635798 238.884324 
L 746.989139 236.305064 
L 748.329674 233.745707 
L 749.657642 231.205922 
L 750.973278 228.685384 
L 752.276808 226.183781 
L 753.568454 223.700805 
L 754.848429 221.236157 
L 756.116943 218.789546 
L 757.3742 216.360687 
L 758.620397 213.949303 
L 759.855727 211.555122 
L 761.080378 209.177881 
L 762.294533 206.81732 
L 763.498371 204.473188 
L 764.692065 202.145237 
L 765.875785 199.833229 
L 767.049697 197.536926 
L 768.213961 195.2561 
L 769.368734 192.990525 
L 770.514171 190.739982 
L 771.650421 188.504256 
L 772.77763 186.283137 
L 773.89594 184.076419 
L 775.005492 181.883901 
L 776.106422 179.705387 
L 777.198862 177.540682 
L 778.282942 175.3896 
L 779.35879 173.251955 
L 780.426528 171.127567 
L 781.48628 169.016258 
L 782.538163 166.917855 
L 783.582293 164.832189 
L 784.618784 162.759092 
L 785.647747 160.698401 
L 786.66929 158.649957 
L 787.68352 156.613604 
L 788.69054 154.589186 
L 789.690452 152.576554 
L 790.683357 150.575561 
L 791.669351 148.58606 
L 792.648529 146.60791 
L 793.620987 144.640972 
L 794.586814 142.685108 
L 795.546102 140.740186 
L 796.498937 138.806071 
L 797.445407 136.882637 
L 798.385596 134.969755 
L 799.319585 133.067301 
L 800.247458 131.175152 
L 801.169293 129.293189 
L 802.085168 127.421294 
L 802.99516 125.55935 
L 803.899345 123.707244 
L 804.797795 121.864864 
L 805.690582 120.0321 
L 806.577779 118.208844 
L 807.459455 116.39499 
L 808.335677 114.590433 
L 809.206513 112.795072 
L 810.072028 111.008804 
L 810.932288 109.231532 
L 811.787356 107.463158 
L 812.637293 105.703585 
L 813.482162 103.95272 
L 814.322022 102.210471 
L 815.156932 100.476745 
L 815.986951 98.751453 
L 816.812135 97.034507 
L 817.63254 95.32582 
L 818.448222 93.625306 
L 819.259234 91.932882 
L 820.06563 90.248465 
L 820.867461 88.571973 
L 821.66478 86.903326 
L 822.457636 85.242446 
L 823.24608 83.589254 
L 824.03016 81.943674 
L 824.809925 80.30563 
L 825.585421 78.675049 
L 826.356695 77.051857 
L 827.123792 75.435983 
L 827.886759 73.827355 
L 828.645638 72.225903 
L 829.400474 70.631559 
L 830.151309 69.044255 
L 830.898186 67.463924 
L 831.641146 65.890501 
L 832.38023 64.32392 
L 833.115478 62.764117 
L 833.84693 61.211029 
L 834.574625 59.664595 
L 835.298601 58.124753 
L 836.018896 56.591443 
L 836.735547 55.064604 
L 837.448591 53.544179 
L 837.448591 -148.726078 
L 837.448591 -148.726078 
L 836.735547 -147.205653 
L 836.018896 -145.678815 
L 835.298601 -144.145504 
L 834.574625 -142.605662 
L 833.84693 -141.059228 
L 833.115478 -139.50614 
L 832.38023 -137.946338 
L 831.641146 -136.379756 
L 830.898186 -134.806333 
L 830.151309 -133.226002 
L 829.400474 -131.638698 
L 828.645638 -130.044354 
L 827.886759 -128.442903 
L 827.123792 -126.834275 
L 826.356695 -125.2184 
L 825.585421 -123.595208 
L 824.809925 -121.964627 
L 824.03016 -120.326584 
L 823.24608 -118.681003 
L 822.457636 -117.027811 
L 821.66478 -115.366931 
L 820.867461 -113.698284 
L 820.06563 -112.021792 
L 819.259234 -110.337375 
L 818.448222 -108.644951 
L 817.63254 -106.944438 
L 816.812135 -105.235751 
L 815.986951 -103.518805 
L 815.156932 -101.793513 
L 814.322022 -100.059787 
L 813.482162 -98.317537 
L 812.637293 -96.566672 
L 811.787356 -94.8071 
L 810.932288 -93.038725 
L 810.072028 -91.261453 
L 809.206513 -89.475186 
L 808.335677 -87.679824 
L 807.459455 -85.875268 
L 806.577779 -84.061413 
L 805.690582 -82.238157 
L 804.797795 -80.405393 
L 803.899345 -78.563013 
L 802.99516 -76.710907 
L 802.085168 -74.848963 
L 801.169293 -72.977068 
L 800.247458 -71.095105 
L 799.319585 -69.202957 
L 798.385596 -67.300503 
L 797.445407 -65.387621 
L 796.498937 -63.464186 
L 795.546102 -61.530072 
L 794.586814 -59.585149 
L 793.620987 -57.629285 
L 792.648529 -55.662347 
L 791.669351 -53.684197 
L 790.683357 -51.694697 
L 789.690452 -49.693703 
L 788.69054 -47.681071 
L 787.68352 -45.656654 
L 786.66929 -43.6203 
L 785.647747 -41.571856 
L 784.618784 -39.511166 
L 783.582293 -37.438069 
L 782.538163 -35.352402 
L 781.48628 -33.253999 
L 780.426528 -31.14269 
L 779.35879 -29.018302 
L 778.282942 -26.880657 
L 777.198862 -24.729575 
L 776.106422 -22.564871 
L 775.005492 -20.386356 
L 773.89594 -18.193838 
L 772.77763 -15.98712 
L 771.650421 -13.766001 
L 770.514171 -11.530275 
L 769.368734 -9.279732 
L 768.213961 -7.014157 
L 767.049697 -4.733331 
L 765.875785 -2.437029 
L 764.692065 -0.12502 
L 763.498371 2.20293 
L 762.294533 4.547062 
L 761.080378 6.907623 
L 759.855727 9.284865 
L 758.620397 11.679046 
L 757.3742 14.09043 
L 756.116943 16.519289 
L 754.848429 18.9659 
L 753.568454 21.430547 
L 752.276808 23.913523 
L 750.973278 26.415127 
L 749.657642 28.935664 
L 748.329674 31.47545 
L 746.989139 34.034807 
L 745.635798 36.614066 
L 744.269405 39.213568 
L 742.889703 41.83366 
L 741.496433 44.474701 
L 740.089324 47.13706 
L 738.668099 49.821115 
L 737.232471 52.527253 
L 735.782146 55.255876 
L 734.316819 58.007392 
L 732.836178 60.782226 
L 731.339898 63.580812 
L 729.827646 66.403598 
L 728.299076 69.251043 
L 726.753834 72.123623 
L 725.191551 75.021826 
L 723.611847 77.946156 
L 722.014329 80.897131 
L 720.398592 83.875288 
L 718.764213 86.881177 
L 717.11076 89.915369 
L 715.43778 92.978451 
L 713.744807 96.071031 
L 712.031358 99.193735 
L 710.296932 102.347212 
L 708.541007 105.532132 
L 706.763045 108.749186 
L 704.962485 111.999092 
L 703.138746 115.282592 
L 701.291222 118.600453 
L 699.419286 121.953471 
L 697.522283 125.34247 
L 695.599534 128.768306 
L 693.650329 132.231865 
L 691.67393 135.734067 
L 689.669568 139.275869 
L 687.636441 142.858262 
L 685.57371 146.482279 
L 683.480501 150.148994 
L 681.355899 153.859522 
L 679.198948 157.615027 
L 677.008649 161.416719 
L 674.783954 165.265862 
L 672.523765 169.163773 
L 670.226931 173.111826 
L 667.892244 177.111457 
L 665.518437 181.164167 
L 663.104174 185.271526 
L 660.648055 189.435176 
L 658.1486 193.656839 
L 655.604255 197.938317 
L 653.013376 202.281504 
L 650.374231 206.688387 
L 647.684985 211.161055 
L 644.943701 215.701703 
L 642.148325 220.312646 
L 639.296679 224.99632 
L 636.38645 229.755298 
L 633.415181 234.592295 
L 630.380258 239.510181 
L 627.278892 244.511996 
L 624.108109 249.60096 
L 620.86473 254.780489 
L 617.545353 260.054211 
L 614.146332 265.425989 
L 610.663749 270.899934 
L 607.093392 276.480433 
L 603.430723 282.172175 
L 599.670841 287.980175 
L 595.808445 293.909812 
L 591.837786 299.966862 
L 587.752622 306.157539 
L 583.54615 312.488541 
L 579.210946 318.967108 
L 574.73888 325.601075 
L 570.121029 332.398947 
L 565.347567 339.369978 
L 560.40764 346.524262 
L 555.289215 353.872842 
L 549.978909 361.427834 
L 544.461773 369.202576 
L 538.72104 377.211801 
L 532.737817 385.471844 
L 526.490713 394.000887 
L 519.955372 402.819258 
L 513.103906 411.94979 
L 505.904168 421.41826 
L 498.318848 431.253933 
L 490.304298 441.490235 
L 481.809009 452.165604 
L 472.771611 463.32457 
L 463.118169 475.019149 
L 452.758514 487.310667 
L 441.581104 500.272179 
L 429.445688 513.991742 
L 416.172519 528.57693 
L 401.525978 544.161198 
L 385.188708 560.91308 
L 366.718805 579.04986 
L 345.474697 598.858493 
L 320.47316 620.728542 
L 290.093258 645.20478 
L 251.368389 673.066511 
L 197.902644 705.386098 
L 111.004389 742.701792 
L -154.662224 739.957729 
z
" clip-path="url(#pa46b8edb83)" style="fill: #806d9b; fill-opacity: 0.05; stroke: #806d9b; stroke-opacity: 0.05"/>
   </g>
   <g id="matplotlib.axis_1">
    <g id="xtick_1">
     <g id="line2d_1">
      <path d="M 171.540578 810.49 
L 171.540578 25.155 
" clip-path="url(#pa46b8edb83)" style="fill: none; stroke: #cccccc; stroke-linecap: round"/>
     </g>
     <g id="text_1">
      <!-- $\mathdefault{10^{2}}$ -->
      <g style="fill: #262626" transform="translate(143.380578 844.305) scale(0.32 -0.32)">
       <defs>
        <path id="DejaVuSans-31" d="M 794 531 
L 1825 531 
L 1825 4091 
L 703 3866 
L 703 4441 
L 1819 4666 
L 2450 4666 
L 2450 531 
L 3481 531 
L 3481 0 
L 794 0 
L 794 531 
z
" transform="scale(0.015625)"/>
        <path id="DejaVuSans-30" d="M 2034 4250 
Q 1547 4250 1301 3770 
Q 1056 3291 1056 2328 
Q 1056 1369 1301 889 
Q 1547 409 2034 409 
Q 2525 409 2770 889 
Q 3016 1369 3016 2328 
Q 3016 3291 2770 3770 
Q 2525 4250 2034 4250 
z
M 2034 4750 
Q 2819 4750 3233 4129 
Q 3647 3509 3647 2328 
Q 3647 1150 3233 529 
Q 2819 -91 2034 -91 
Q 1250 -91 836 529 
Q 422 1150 422 2328 
Q 422 3509 836 4129 
Q 1250 4750 2034 4750 
z
" transform="scale(0.015625)"/>
        <path id="DejaVuSans-32" d="M 1228 531 
L 3431 531 
L 3431 0 
L 469 0 
L 469 531 
Q 828 903 1448 1529 
Q 2069 2156 2228 2338 
Q 2531 2678 2651 2914 
Q 2772 3150 2772 3378 
Q 2772 3750 2511 3984 
Q 2250 4219 1831 4219 
Q 1534 4219 1204 4116 
Q 875 4013 500 3803 
L 500 4441 
Q 881 4594 1212 4672 
Q 1544 4750 1819 4750 
Q 2544 4750 2975 4387 
Q 3406 4025 3406 3419 
Q 3406 3131 3298 2873 
Q 3191 2616 2906 2266 
Q 2828 2175 2409 1742 
Q 1991 1309 1228 531 
z
" transform="scale(0.015625)"/>
       </defs>
       <use xlink:href="#DejaVuSans-31" transform="translate(0 0.765625)"/>
       <use xlink:href="#DejaVuSans-30" transform="translate(63.623047 0.765625)"/>
       <use xlink:href="#DejaVuSans-32" transform="translate(128.203125 39.046875) scale(0.7)"/>
      </g>
     </g>
    </g>
    <g id="xtick_2">
     <g id="line2d_2">
      <path d="M 497.74338 810.49 
L 497.74338 25.155 
" clip-path="url(#pa46b8edb83)" style="fill: none; stroke: #cccccc; stroke-linecap: round"/>
     </g>
     <g id="text_2">
      <!-- $\mathdefault{10^{3}}$ -->
      <g style="fill: #262626" transform="translate(469.58338 844.305) scale(0.32 -0.32)">
       <defs>
        <path id="DejaVuSans-33" d="M 2597 2516 
Q 3050 2419 3304 2112 
Q 3559 1806 3559 1356 
Q 3559 666 3084 287 
Q 2609 -91 1734 -91 
Q 1441 -91 1130 -33 
Q 819 25 488 141 
L 488 750 
Q 750 597 1062 519 
Q 1375 441 1716 441 
Q 2309 441 2620 675 
Q 2931 909 2931 1356 
Q 2931 1769 2642 2001 
Q 2353 2234 1838 2234 
L 1294 2234 
L 1294 2753 
L 1863 2753 
Q 2328 2753 2575 2939 
Q 2822 3125 2822 3475 
Q 2822 3834 2567 4026 
Q 2313 4219 1838 4219 
Q 1578 4219 1281 4162 
Q 984 4106 628 3988 
L 628 4550 
Q 988 4650 1302 4700 
Q 1616 4750 1894 4750 
Q 2613 4750 3031 4423 
Q 3450 4097 3450 3541 
Q 3450 3153 3228 2886 
Q 3006 2619 2597 2516 
z
" transform="scale(0.015625)"/>
       </defs>
       <use xlink:href="#DejaVuSans-31" transform="translate(0 0.765625)"/>
       <use xlink:href="#DejaVuSans-30" transform="translate(63.623047 0.765625)"/>
       <use xlink:href="#DejaVuSans-33" transform="translate(128.203125 39.046875) scale(0.7)"/>
      </g>
     </g>
    </g>
    <g id="xtick_3">
     <g id="line2d_3">
      <path d="M 823.946181 810.49 
L 823.946181 25.155 
" clip-path="url(#pa46b8edb83)" style="fill: none; stroke: #cccccc; stroke-linecap: round"/>
     </g>
     <g id="text_3">
      <!-- $\mathdefault{10^{4}}$ -->
      <g style="fill: #262626" transform="translate(795.786181 844.305) scale(0.32 -0.32)">
       <defs>
        <path id="DejaVuSans-34" d="M 2419 4116 
L 825 1625 
L 2419 1625 
L 2419 4116 
z
M 2253 4666 
L 3047 4666 
L 3047 1625 
L 3713 1625 
L 3713 1100 
L 3047 1100 
L 3047 0 
L 2419 0 
L 2419 1100 
L 313 1100 
L 313 1709 
L 2253 4666 
z
" transform="scale(0.015625)"/>
       </defs>
       <use xlink:href="#DejaVuSans-31" transform="translate(0 0.684375)"/>
       <use xlink:href="#DejaVuSans-30" transform="translate(63.623047 0.684375)"/>
       <use xlink:href="#DejaVuSans-34" transform="translate(128.203125 38.965625) scale(0.7)"/>
      </g>
     </g>
    </g>
    <g id="xtick_4">
     <g id="line2d_4">
      <path d="M 73.34375 810.49 
L 73.34375 25.155 
" clip-path="url(#pa46b8edb83)" style="fill: none; stroke-dasharray: 3.7,1.6; stroke-dashoffset: 0; stroke: #cccccc; stroke-opacity: 0.4"/>
     </g>
    </g>
    <g id="xtick_5">
     <g id="line2d_5">
      <path d="M 99.172894 810.49 
L 99.172894 25.155 
" clip-path="url(#pa46b8edb83)" style="fill: none; stroke-dasharray: 3.7,1.6; stroke-dashoffset: 0; stroke: #cccccc; stroke-opacity: 0.4"/>
     </g>
    </g>
    <g id="xtick_6">
     <g id="line2d_6">
      <path d="M 121.011125 810.49 
L 121.011125 25.155 
" clip-path="url(#pa46b8edb83)" style="fill: none; stroke-dasharray: 3.7,1.6; stroke-dashoffset: 0; stroke: #cccccc; stroke-opacity: 0.4"/>
     </g>
    </g>
    <g id="xtick_7">
     <g id="line2d_7">
      <path d="M 139.92826 810.49 
L 139.92826 25.155 
" clip-path="url(#pa46b8edb83)" style="fill: none; stroke-dasharray: 3.7,1.6; stroke-dashoffset: 0; stroke: #cccccc; stroke-opacity: 0.4"/>
     </g>
    </g>
    <g id="xtick_8">
     <g id="line2d_8">
      <path d="M 156.614356 810.49 
L 156.614356 25.155 
" clip-path="url(#pa46b8edb83)" style="fill: none; stroke-dasharray: 3.7,1.6; stroke-dashoffset: 0; stroke: #cccccc; stroke-opacity: 0.4"/>
     </g>
    </g>
    <g id="xtick_9">
     <g id="line2d_9">
      <path d="M 269.737406 810.49 
L 269.737406 25.155 
" clip-path="url(#pa46b8edb83)" style="fill: none; stroke-dasharray: 3.7,1.6; stroke-dashoffset: 0; stroke: #cccccc; stroke-opacity: 0.4"/>
     </g>
    </g>
    <g id="xtick_10">
     <g id="line2d_10">
      <path d="M 327.178868 810.49 
L 327.178868 25.155 
" clip-path="url(#pa46b8edb83)" style="fill: none; stroke-dasharray: 3.7,1.6; stroke-dashoffset: 0; stroke: #cccccc; stroke-opacity: 0.4"/>
     </g>
    </g>
    <g id="xtick_11">
     <g id="line2d_11">
      <path d="M 367.934234 810.49 
L 367.934234 25.155 
" clip-path="url(#pa46b8edb83)" style="fill: none; stroke-dasharray: 3.7,1.6; stroke-dashoffset: 0; stroke: #cccccc; stroke-opacity: 0.4"/>
     </g>
    </g>
    <g id="xtick_12">
     <g id="line2d_12">
      <path d="M 399.546552 810.49 
L 399.546552 25.155 
" clip-path="url(#pa46b8edb83)" style="fill: none; stroke-dasharray: 3.7,1.6; stroke-dashoffset: 0; stroke: #cccccc; stroke-opacity: 0.4"/>
     </g>
    </g>
    <g id="xtick_13">
     <g id="line2d_13">
      <path d="M 425.375696 810.49 
L 425.375696 25.155 
" clip-path="url(#pa46b8edb83)" style="fill: none; stroke-dasharray: 3.7,1.6; stroke-dashoffset: 0; stroke: #cccccc; stroke-opacity: 0.4"/>
     </g>
    </g>
    <g id="xtick_14">
     <g id="line2d_14">
      <path d="M 447.213926 810.49 
L 447.213926 25.155 
" clip-path="url(#pa46b8edb83)" style="fill: none; stroke-dasharray: 3.7,1.6; stroke-dashoffset: 0; stroke: #cccccc; stroke-opacity: 0.4"/>
     </g>
    </g>
    <g id="xtick_15">
     <g id="line2d_15">
      <path d="M 466.131062 810.49 
L 466.131062 25.155 
" clip-path="url(#pa46b8edb83)" style="fill: none; stroke-dasharray: 3.7,1.6; stroke-dashoffset: 0; stroke: #cccccc; stroke-opacity: 0.4"/>
     </g>
    </g>
    <g id="xtick_16">
     <g id="line2d_16">
      <path d="M 482.817158 810.49 
L 482.817158 25.155 
" clip-path="url(#pa46b8edb83)" style="fill: none; stroke-dasharray: 3.7,1.6; stroke-dashoffset: 0; stroke: #cccccc; stroke-opacity: 0.4"/>
     </g>
    </g>
    <g id="xtick_17">
     <g id="line2d_17">
      <path d="M 595.940208 810.49 
L 595.940208 25.155 
" clip-path="url(#pa46b8edb83)" style="fill: none; stroke-dasharray: 3.7,1.6; stroke-dashoffset: 0; stroke: #cccccc; stroke-opacity: 0.4"/>
     </g>
    </g>
    <g id="xtick_18">
     <g id="line2d_18">
      <path d="M 653.38167 810.49 
L 653.38167 25.155 
" clip-path="url(#pa46b8edb83)" style="fill: none; stroke-dasharray: 3.7,1.6; stroke-dashoffset: 0; stroke: #cccccc; stroke-opacity: 0.4"/>
     </g>
    </g>
    <g id="xtick_19">
     <g id="line2d_19">
      <path d="M 694.137035 810.49 
L 694.137035 25.155 
" clip-path="url(#pa46b8edb83)" style="fill: none; stroke-dasharray: 3.7,1.6; stroke-dashoffset: 0; stroke: #cccccc; stroke-opacity: 0.4"/>
     </g>
    </g>
    <g id="xtick_20">
     <g id="line2d_20">
      <path d="M 725.749353 810.49 
L 725.749353 25.155 
" clip-path="url(#pa46b8edb83)" style="fill: none; stroke-dasharray: 3.7,1.6; stroke-dashoffset: 0; stroke: #cccccc; stroke-opacity: 0.4"/>
     </g>
    </g>
    <g id="xtick_21">
     <g id="line2d_21">
      <path d="M 751.578497 810.49 
L 751.578497 25.155 
" clip-path="url(#pa46b8edb83)" style="fill: none; stroke-dasharray: 3.7,1.6; stroke-dashoffset: 0; stroke: #cccccc; stroke-opacity: 0.4"/>
     </g>
    </g>
    <g id="xtick_22">
     <g id="line2d_22">
      <path d="M 773.416728 810.49 
L 773.416728 25.155 
" clip-path="url(#pa46b8edb83)" style="fill: none; stroke-dasharray: 3.7,1.6; stroke-dashoffset: 0; stroke: #cccccc; stroke-opacity: 0.4"/>
     </g>
    </g>
    <g id="xtick_23">
     <g id="line2d_23">
      <path d="M 792.333863 810.49 
L 792.333863 25.155 
" clip-path="url(#pa46b8edb83)" style="fill: none; stroke-dasharray: 3.7,1.6; stroke-dashoffset: 0; stroke: #cccccc; stroke-opacity: 0.4"/>
     </g>
    </g>
    <g id="xtick_24">
     <g id="line2d_24">
      <path d="M 809.01996 810.49 
L 809.01996 25.155 
" clip-path="url(#pa46b8edb83)" style="fill: none; stroke-dasharray: 3.7,1.6; stroke-dashoffset: 0; stroke: #cccccc; stroke-opacity: 0.4"/>
     </g>
    </g>
   </g>
   <g id="matplotlib.axis_2">
    <g id="ytick_1">
     <g id="line2d_25">
      <path d="M 73.34375 810.49 
L 823.946181 810.49 
" clip-path="url(#pa46b8edb83)" style="fill: none; stroke-dasharray: 3.7,1.6; stroke-dashoffset: 0; stroke: #cccccc; stroke-opacity: 0.6"/>
     </g>
     <g id="text_4">
      <!-- 0.0 -->
      <g style="fill: #262626" transform="translate(12.95375 822.6475) scale(0.32 -0.32)">
       <defs>
        <path id="DejaVuSans-2e" d="M 684 794 
L 1344 794 
L 1344 0 
L 684 0 
L 684 794 
z
" transform="scale(0.015625)"/>
       </defs>
       <use xlink:href="#DejaVuSans-30"/>
       <use xlink:href="#DejaVuSans-2e" transform="translate(63.623047 0)"/>
       <use xlink:href="#DejaVuSans-30" transform="translate(95.410156 0)"/>
      </g>
     </g>
    </g>
    <g id="ytick_2">
     <g id="line2d_26">
      <path d="M 73.34375 653.423 
L 823.946181 653.423 
" clip-path="url(#pa46b8edb83)" style="fill: none; stroke-dasharray: 3.7,1.6; stroke-dashoffset: 0; stroke: #cccccc; stroke-opacity: 0.6"/>
     </g>
     <g id="text_5">
      <!-- 0.2 -->
      <g style="fill: #262626" transform="translate(12.95375 665.5805) scale(0.32 -0.32)">
       <use xlink:href="#DejaVuSans-30"/>
       <use xlink:href="#DejaVuSans-2e" transform="translate(63.623047 0)"/>
       <use xlink:href="#DejaVuSans-32" transform="translate(95.410156 0)"/>
      </g>
     </g>
    </g>
    <g id="ytick_3">
     <g id="line2d_27">
      <path d="M 73.34375 496.356 
L 823.946181 496.356 
" clip-path="url(#pa46b8edb83)" style="fill: none; stroke-dasharray: 3.7,1.6; stroke-dashoffset: 0; stroke: #cccccc; stroke-opacity: 0.6"/>
     </g>
     <g id="text_6">
      <!-- 0.4 -->
      <g style="fill: #262626" transform="translate(12.95375 508.5135) scale(0.32 -0.32)">
       <use xlink:href="#DejaVuSans-30"/>
       <use xlink:href="#DejaVuSans-2e" transform="translate(63.623047 0)"/>
       <use xlink:href="#DejaVuSans-34" transform="translate(95.410156 0)"/>
      </g>
     </g>
    </g>
    <g id="ytick_4">
     <g id="line2d_28">
      <path d="M 73.34375 339.289 
L 823.946181 339.289 
" clip-path="url(#pa46b8edb83)" style="fill: none; stroke-dasharray: 3.7,1.6; stroke-dashoffset: 0; stroke: #cccccc; stroke-opacity: 0.6"/>
     </g>
     <g id="text_7">
      <!-- 0.6 -->
      <g style="fill: #262626" transform="translate(12.95375 351.4465) scale(0.32 -0.32)">
       <defs>
        <path id="DejaVuSans-36" d="M 2113 2584 
Q 1688 2584 1439 2293 
Q 1191 2003 1191 1497 
Q 1191 994 1439 701 
Q 1688 409 2113 409 
Q 2538 409 2786 701 
Q 3034 994 3034 1497 
Q 3034 2003 2786 2293 
Q 2538 2584 2113 2584 
z
M 3366 4563 
L 3366 3988 
Q 3128 4100 2886 4159 
Q 2644 4219 2406 4219 
Q 1781 4219 1451 3797 
Q 1122 3375 1075 2522 
Q 1259 2794 1537 2939 
Q 1816 3084 2150 3084 
Q 2853 3084 3261 2657 
Q 3669 2231 3669 1497 
Q 3669 778 3244 343 
Q 2819 -91 2113 -91 
Q 1303 -91 875 529 
Q 447 1150 447 2328 
Q 447 3434 972 4092 
Q 1497 4750 2381 4750 
Q 2619 4750 2861 4703 
Q 3103 4656 3366 4563 
z
" transform="scale(0.015625)"/>
       </defs>
       <use xlink:href="#DejaVuSans-30"/>
       <use xlink:href="#DejaVuSans-2e" transform="translate(63.623047 0)"/>
       <use xlink:href="#DejaVuSans-36" transform="translate(95.410156 0)"/>
      </g>
     </g>
    </g>
    <g id="ytick_5">
     <g id="line2d_29">
      <path d="M 73.34375 182.222 
L 823.946181 182.222 
" clip-path="url(#pa46b8edb83)" style="fill: none; stroke-dasharray: 3.7,1.6; stroke-dashoffset: 0; stroke: #cccccc; stroke-opacity: 0.6"/>
     </g>
     <g id="text_8">
      <!-- 0.8 -->
      <g style="fill: #262626" transform="translate(12.95375 194.3795) scale(0.32 -0.32)">
       <defs>
        <path id="DejaVuSans-38" d="M 2034 2216 
Q 1584 2216 1326 1975 
Q 1069 1734 1069 1313 
Q 1069 891 1326 650 
Q 1584 409 2034 409 
Q 2484 409 2743 651 
Q 3003 894 3003 1313 
Q 3003 1734 2745 1975 
Q 2488 2216 2034 2216 
z
M 1403 2484 
Q 997 2584 770 2862 
Q 544 3141 544 3541 
Q 544 4100 942 4425 
Q 1341 4750 2034 4750 
Q 2731 4750 3128 4425 
Q 3525 4100 3525 3541 
Q 3525 3141 3298 2862 
Q 3072 2584 2669 2484 
Q 3125 2378 3379 2068 
Q 3634 1759 3634 1313 
Q 3634 634 3220 271 
Q 2806 -91 2034 -91 
Q 1263 -91 848 271 
Q 434 634 434 1313 
Q 434 1759 690 2068 
Q 947 2378 1403 2484 
z
M 1172 3481 
Q 1172 3119 1398 2916 
Q 1625 2713 2034 2713 
Q 2441 2713 2670 2916 
Q 2900 3119 2900 3481 
Q 2900 3844 2670 4047 
Q 2441 4250 2034 4250 
Q 1625 4250 1398 4047 
Q 1172 3844 1172 3481 
z
" transform="scale(0.015625)"/>
       </defs>
       <use xlink:href="#DejaVuSans-30"/>
       <use xlink:href="#DejaVuSans-2e" transform="translate(63.623047 0)"/>
       <use xlink:href="#DejaVuSans-38" transform="translate(95.410156 0)"/>
      </g>
     </g>
    </g>
    <g id="ytick_6">
     <g id="line2d_30">
      <path d="M 73.34375 25.155 
L 823.946181 25.155 
" clip-path="url(#pa46b8edb83)" style="fill: none; stroke-dasharray: 3.7,1.6; stroke-dashoffset: 0; stroke: #cccccc; stroke-opacity: 0.6"/>
     </g>
     <g id="text_9">
      <!-- 1.0 -->
      <g style="fill: #262626" transform="translate(12.95375 37.3125) scale(0.32 -0.32)">
       <use xlink:href="#DejaVuSans-31"/>
       <use xlink:href="#DejaVuSans-2e" transform="translate(63.623047 0)"/>
       <use xlink:href="#DejaVuSans-30" transform="translate(95.410156 0)"/>
      </g>
     </g>
    </g>
   </g>
   <g id="line2d_31">
    <path d="M -1 461.83414 
L 9.718104 442.337383 
L 32.160599 404.176877 
L 51.529248 373.199618 
L 68.565529 347.451075 
L 83.771276 325.653691 
L 97.501979 306.930715 
L 110.018678 290.656883 
L 121.518714 276.37218 
L 132.154909 263.72934 
L 142.048022 252.460469 
L 151.295135 242.355051 
L 159.975467 233.244999 
L 168.154503 224.994216 
L 175.886995 217.491154 
L 183.21919 210.643382 
L 190.190499 204.373566 
L 196.834789 198.616434 
L 203.181369 193.316457 
L 209.255778 188.426059 
L 215.080404 183.904207 
L 220.67498 179.715301 
L 231.241997 172.215921 
L 241.075237 165.721961 
L 250.270023 160.072349 
L 258.904232 155.1391 
L 267.042307 150.819099 
L 274.738181 147.028246 
L 282.037442 143.697201 
L 288.978974 140.76824 
L 295.59621 138.192887 
L 301.918102 135.93011 
L 307.969892 133.944931 
L 313.773718 132.207334 
L 322.056613 130.009436 
L 329.881866 128.237518 
L 337.297412 126.831431 
L 344.344026 125.741516 
L 351.056685 124.926403 
L 357.465616 124.35135 
L 363.597117 123.986964 
L 371.380289 123.78608 
L 378.758034 123.865903 
L 385.770508 124.18558 
L 392.452179 124.711244 
L 398.832857 125.414597 
L 406.424656 126.50774 
L 413.630231 127.802878 
L 420.486983 129.268277 
L 427.027133 130.877702 
L 434.496495 132.968611 
L 441.591686 135.204448 
L 448.348411 137.559754 
L 455.84437 140.430872 
L 462.963554 143.409061 
L 469.742034 146.472325 
L 477.111415 150.054524 
L 484.116332 153.702833 
L 491.603808 157.864637 
L 498.715341 162.068316 
L 506.21968 166.769183 
L 511.245789 170.0698 
L 511.245789 170.0698 
" clip-path="url(#pa46b8edb83)" style="fill: none; stroke: #bfbfbf; stroke-width: 6; stroke-linecap: round"/>
   </g>
   <g id="line2d_32">
    <path d="M -1 516.83097 
L 10.829232 496.886962 
L 24.130265 474.813324 
L 40.120533 448.759521 
L 54.487621 425.799971 
L 67.530911 405.32442 
L 82.308711 382.549747 
L 95.68957 362.316296 
L 110.238318 340.735655 
L 123.431136 321.54352 
L 137.414439 301.593098 
L 151.868856 281.394172 
L 164.984073 263.439344 
L 178.418683 245.414885 
L 191.988892 227.586195 
L 205.552911 210.144973 
L 219.004406 193.222976 
L 232.265884 176.905137 
L 245.282659 161.240942 
L 258.01772 146.253763 
L 271.189335 131.104522 
L 283.239816 117.558001 
L 283.239816 117.558001 
" clip-path="url(#pa46b8edb83)" style="fill: none; stroke: #caacc5; stroke-width: 6; stroke-linecap: round"/>
   </g>
   <g id="line2d_33">
    <path d="M -1 842.680031 
L 111.004389 843.836921 
L 197.902644 806.521226 
L 251.368389 774.201639 
L 290.093258 746.339908 
L 320.47316 721.863671 
L 345.474697 699.993621 
L 366.718805 680.184988 
L 385.188708 662.048209 
L 401.525978 645.296327 
L 416.172519 629.712059 
L 429.445688 615.126871 
L 441.581104 601.407308 
L 452.758514 588.445796 
L 463.118169 576.154278 
L 472.771611 564.459699 
L 481.809009 553.300733 
L 498.318848 532.389062 
L 513.103906 513.084919 
L 526.490713 495.136015 
L 538.72104 478.34693 
L 549.978909 462.562963 
L 565.347567 440.505107 
L 579.210946 420.102236 
L 591.837786 401.101991 
L 603.430723 383.307303 
L 617.545353 361.18934 
L 630.380258 340.64531 
L 644.943701 316.836832 
L 658.1486 294.791967 
L 672.523765 270.298901 
L 685.57371 247.617408 
L 699.419286 223.088599 
L 713.744807 197.20616 
L 726.753834 173.258752 
L 740.089324 148.272189 
L 753.568454 122.565676 
L 767.049697 96.401798 
L 781.48628 67.881129 
L 795.546102 39.605057 
L 810.072028 9.873676 
L 815.32128 -1 
L 815.32128 -1 
" clip-path="url(#pa46b8edb83)" style="fill: none; stroke: #806d9b; stroke-width: 6; stroke-linecap: round"/>
   </g>
   <g id="patch_3">
    <path d="M 73.34375 810.49 
L 73.34375 25.155 
" style="fill: none; stroke: #000000; stroke-width: 2; stroke-linejoin: miter; stroke-linecap: square"/>
   </g>
   <g id="patch_4">
    <path d="M 73.34375 810.49 
L 823.946181 810.49 
" style="fill: none; stroke: #000000; stroke-width: 2; stroke-linejoin: miter; stroke-linecap: square"/>
   </g>
   <g id="PathCollection_1">
    <defs>
     <path id="mb4e2e807b7" d="M 0 7.745967 
C 2.054254 7.745967 4.024648 6.929803 5.477226 5.477226 
C 6.929803 4.024648 7.745967 2.054254 7.745967 0 
C 7.745967 -2.054254 6.929803 -4.024648 5.477226 -5.477226 
C 4.024648 -6.929803 2.054254 -7.745967 0 -7.745967 
C -2.054254 -7.745967 -4.024648 -6.929803 -5.477226 -5.477226 
C -6.929803 -4.024648 -7.745967 -2.054254 -7.745967 0 
C -7.745967 2.054254 -6.929803 4.024648 -5.477226 5.477226 
C -4.024648 6.929803 -2.054254 7.745967 0 7.745967 
z
" style="stroke: #ffffff; stroke-width: 2"/>
    </defs>
    <g clip-path="url(#pa46b8edb83)">
     <use xlink:href="#mb4e2e807b7" x="-1" y="490.368383" style="fill: #bfbfbf; stroke: #ffffff; stroke-width: 2"/>
     <use xlink:href="#mb4e2e807b7" x="73.34375" y="339.289" style="fill: #bfbfbf; stroke: #ffffff; stroke-width: 2"/>
     <use xlink:href="#mb4e2e807b7" x="171.540578" y="234.839445" style="fill: #bfbfbf; stroke: #ffffff; stroke-width: 2"/>
     <use xlink:href="#mb4e2e807b7" x="269.737406" y="51.85639" style="fill: #bfbfbf; stroke: #ffffff; stroke-width: 2"/>
     <use xlink:href="#mb4e2e807b7" x="327.178868" y="103.6885" style="fill: #bfbfbf; stroke: #ffffff; stroke-width: 2"/>
     <use xlink:href="#mb4e2e807b7" x="399.546552" y="313.372945" style="fill: #bfbfbf; stroke: #ffffff; stroke-width: 2"/>
     <use xlink:href="#mb4e2e807b7" x="497.74338" y="77.772445" style="fill: #bfbfbf; stroke: #ffffff; stroke-width: 2"/>
    </g>
   </g>
   <g id="PathCollection_2">
    <defs>
     <path id="m6ed15e3c62" d="M -7.745967 7.745967 
L 7.745967 7.745967 
L 7.745967 -7.745967 
L -7.745967 -7.745967 
z
" style="stroke: #ffffff; stroke-width: 2"/>
    </defs>
    <g clip-path="url(#pa46b8edb83)">
     <use xlink:href="#m6ed15e3c62" x="-1" y="525.829356" style="fill: #caacc5; stroke: #ffffff; stroke-width: 2"/>
     <use xlink:href="#m6ed15e3c62" x="73.34375" y="391.906445" style="fill: #caacc5; stroke: #ffffff; stroke-width: 2"/>
     <use xlink:href="#m6ed15e3c62" x="171.540578" y="260.7555" style="fill: #caacc5; stroke: #ffffff; stroke-width: 2"/>
     <use xlink:href="#m6ed15e3c62" x="269.737406" y="130.38989" style="fill: #caacc5; stroke: #ffffff; stroke-width: 2"/>
    </g>
   </g>
   <g id="PathCollection_3">
    <defs>
     <path id="m145d18ff16" d="M 0 -7.745967 
L -7.745967 7.745967 
L 7.745967 7.745967 
z
" style="stroke: #ffffff; stroke-width: 2"/>
    </defs>
    <g clip-path="url(#pa46b8edb83)">
     <use xlink:href="#m145d18ff16" x="-1" y="805.48011" style="fill: #806d9b; stroke: #ffffff; stroke-width: 2"/>
     <use xlink:href="#m145d18ff16" x="269.737406" y="810.49" style="fill: #806d9b; stroke: #ffffff; stroke-width: 2"/>
     <use xlink:href="#m145d18ff16" x="327.178868" y="810.49" style="fill: #806d9b; stroke: #ffffff; stroke-width: 2"/>
     <use xlink:href="#m145d18ff16" x="399.546552" y="761.406563" style="fill: #806d9b; stroke: #ffffff; stroke-width: 2"/>
     <use xlink:href="#m145d18ff16" x="497.74338" y="417.8225" style="fill: #806d9b; stroke: #ffffff; stroke-width: 2"/>
     <use xlink:href="#m145d18ff16" x="595.940208" y="287.45689" style="fill: #806d9b; stroke: #ffffff; stroke-width: 2"/>
     <use xlink:href="#m145d18ff16" x="653.38167" y="142.95525" style="fill: #806d9b; stroke: #ffffff; stroke-width: 2"/>
     <use xlink:href="#m145d18ff16" x="725.749353" y="221.48875" style="fill: #806d9b; stroke: #ffffff; stroke-width: 2"/>
     <use xlink:href="#m145d18ff16" x="823.946181" y="98.191155" style="fill: #806d9b; stroke: #ffffff; stroke-width: 2"/>
    </g>
   </g>
   <g id="line2d_34">
    <path d="M 158.179765 417.8225 
L 183.749206 417.8225 
" clip-path="url(#pa46b8edb83)" style="fill: none; stroke: #90ee90; stroke-opacity: 0.9; stroke-width: 5; stroke-linecap: round"/>
   </g>
   <g id="PathCollection_4">
    <defs>
     <path id="m7d6a962660" d="M 0 -7.745967 
L -6.708204 -3.872983 
L -6.708204 3.872983 
L -0 7.745967 
L 6.708204 3.872983 
L 6.708204 -3.872983 
z
" style="stroke: #ffffff; stroke-opacity: 0.9; stroke-width: 2"/>
    </defs>
    <g clip-path="url(#pa46b8edb83)">
     <use xlink:href="#m7d6a962660" x="171.540578" y="417.8225" style="fill: #90ee90; fill-opacity: 0.9; stroke: #ffffff; stroke-opacity: 0.9; stroke-width: 2"/>
    </g>
   </g>
  </g>
 </g>
 <defs>
  <clipPath id="pa46b8edb83">
   <rect x="73.34375" y="25.155" width="750.602431" height="785.335"/>
  </clipPath>
 </defs>
</svg>
